<svg width="879" height="235" viewBox="0 0 879 235" fill="none" xmlns="http://www.w3.org/2000/svg">
<path d="M731.192 130.406C731.192 128.124 730.903 126.145 730.903 123.863C730.396 117.624 728.73 111.613 725.76 106.515C719.023 94.5691 705.694 93.4278 697.292 97.9931C692.438 100.58 688.599 105.069 687.006 110.548C682.659 121.885 682.659 133.83 685.412 145.548C686.498 150.646 688.961 155.515 692.438 159.472C699.175 166.548 709.534 167.157 716.777 163.428C722.21 160.613 725.47 156.048 727.86 150.341C730.033 144.102 731.12 137.254 731.12 130.406H731.192ZM645.644 234.494V70.982H676.792V90.6126C677.878 91.2213 678.168 90.6126 678.675 89.7756C682.442 82.3951 687.368 76.156 694.901 72.4277C698.668 70.6777 702.725 69.6125 706.781 69.3081C713.011 68.7755 719.53 69.6125 725.47 71.8951C735.249 75.6234 743.362 83.0039 748.215 92.667C752.562 100.884 754.952 110.015 755.821 119.145C756.908 131.7 756.618 144.483 752.851 156.733C750.678 164.722 746.622 172.102 741.189 178.037C733.873 186.255 723.587 191.428 712.721 191.657C707.288 192.265 702.145 191.352 697.002 189.678C689.179 186.863 682.659 180.852 678.893 172.939L678.096 171.189C678.096 171.189 677.589 170.657 677.009 170.352V234.342L645.571 234.646L645.644 234.494Z" fill="white"/>
<path d="M877.961 189.832H846.306V118.157C846.306 113.896 845.22 109.635 843.336 105.907C840.874 101.342 836.6 98.2222 831.964 97.3852C826.531 95.9396 820.591 96.5483 815.738 99.3635C809.508 102.787 806.248 108.494 805.162 115.266C804.872 117.244 804.655 119.527 804.655 121.809V190.06H773.217V31.113H803.785V90.8417C803.785 90.8417 804.075 91.3743 804.293 91.6787C804.582 91.3743 805.089 91.3743 805.089 91.1461C805.597 90.0048 806.176 88.5591 806.683 87.4178C812.116 77.146 820.229 71.5155 831.312 69.7655C838.338 68.6242 845.365 68.9285 852.174 71.2112C860.866 73.7981 868.182 80.0373 872.456 88.2547C875.716 94.1896 877.599 101.037 877.889 107.885C877.889 109.027 878.179 109.864 878.179 111.005L877.889 189.755L877.961 189.832Z" fill="white"/>
<path d="M406.539 127.288C406.539 127.288 406.25 126.755 406.25 126.451L398.934 103.092C395.384 91.7548 391.907 80.3416 388.358 68.7002C388.068 68.1676 387.851 67.5589 387.271 67.5589C386.474 67.2546 386.474 68.0916 386.185 69.0046C385.677 70.9829 384.808 72.9611 384.301 74.9394C379.448 90.3091 374.812 105.679 369.959 121.048C369.452 123.331 368.582 125.309 368.075 127.592L406.539 127.288ZM414.363 153.766H361.049C360.252 153.462 359.455 154.07 359.455 154.907C355.906 166.016 352.429 177.353 349.169 188.462C348.879 189.603 348.083 190.136 347.286 189.908H314.544C315.341 187.321 316.138 185.038 316.717 182.755L329.466 144.331C334.899 127.516 340.549 110.777 345.982 93.9613C350.618 80.0373 355.181 65.8089 359.817 51.8849C361.99 45.3414 364.164 38.7979 366.337 32.2544C366.337 31.7217 367.133 31.113 367.713 31.113H406.974C407.771 31.113 408.35 31.7217 408.568 32.2544C411.248 40.2435 413.711 48.461 416.391 56.4502L433.703 109.103L445.873 145.777C450.509 160.005 455.362 174.234 459.926 188.462C459.926 188.766 460.216 189.299 460.216 189.908H427.474C426.677 190.212 425.591 189.375 425.591 188.462C422.041 177.049 418.564 165.712 415.015 154.299C414.725 153.994 414.508 153.994 414.508 153.766H414.363Z" fill="white"/>
<path d="M599.574 118.158C599.863 110.777 597.111 103.93 591.75 99.1361C581.464 90.3099 566.035 91.7556 557.632 102.864C554.083 107.125 552.2 112.527 552.2 118.234H599.574V118.158ZM628.042 157.115C627.245 162.213 625.072 167.387 622.102 171.647C615.582 181.006 606.672 186.408 596.386 189.528C589.36 191.506 582.334 192.343 575.017 192.115C566.615 192.115 558.212 190.137 550.389 186.408C541.189 181.843 533.583 174.767 528.73 165.332C524.094 156.81 521.703 147.452 521.124 137.712C520.327 128.049 521.124 118.691 523.587 109.256C527.933 93.886 536.553 81.9403 550.389 74.5598C556.618 71.4402 563.137 69.462 570.164 69.1576C578.567 68.3207 587.259 69.462 595.372 71.9729C602.399 74.5598 609.208 78.5164 614.351 84.2229C620.87 91.2991 625.216 99.897 627.317 109.256C628.693 114.962 629.49 120.897 629.49 126.604V138.245H552.344C552.634 141.06 552.851 143.647 553.141 146.234C553.938 151.332 556.111 155.897 559.661 159.626C564.007 164.191 569.657 166.778 575.887 167.006C579.943 167.31 584.289 166.702 588.056 165.332C592.112 163.886 595.372 161.071 598.052 157.343C598.342 157.039 598.849 156.81 599.139 156.506H627.824C627.824 157.039 628.114 157.039 628.114 157.039L628.042 157.115Z" fill="white"/>
<path d="M504.826 31.113H473.388V189.832H504.826V31.113Z" fill="white"/>
<path d="M0.0189159 198.862C1.75795 170.517 13.5196 143.715 33.2022 123.244C52.8847 102.774 79.2051 89.9695 107.459 87.1199C108.802 86.9846 110.159 87.1176 111.45 87.5111C112.741 87.9047 113.941 88.5509 114.98 89.4123C116.019 90.2736 116.877 91.3328 117.503 92.5284C118.13 93.7242 118.512 95.0325 118.628 96.3771C119.578 107.365 117.468 118.402 112.532 128.265C111.837 129.664 110.83 130.884 109.588 131.831C108.346 132.778 106.903 133.427 105.37 133.727C89.3036 136.848 74.728 145.216 63.9316 157.518C62.8951 158.701 62.249 160.175 62.0816 161.74C61.9143 163.303 62.2336 164.881 62.9963 166.256C72.0077 182.525 84.3177 196.732 99.1377 207.969L101.036 209.41C101.401 209.688 101.685 210.063 101.857 210.49C102.029 210.918 102.082 211.384 102.012 211.839C101.939 212.293 101.743 212.722 101.446 213.073C101.149 213.425 100.762 213.692 100.326 213.839L98.0726 214.617C83.0397 219.808 67.123 221.949 51.2529 220.916C35.3828 219.883 19.8777 215.697 5.64407 208.604C3.85397 207.711 2.36605 206.311 1.36582 204.58C0.3656 202.846 -0.102891 200.857 0.0189159 198.862Z" fill="white"/>
<path d="M113.828 1.68937C100.566 10.4684 89.1878 21.8035 80.3577 35.0315C71.5276 48.2595 65.4234 63.1153 62.4019 78.7301C62.2515 79.5082 62.1014 80.2866 61.9444 81.0648C61.8561 81.5178 61.8929 81.9866 62.0503 82.4204C62.2077 82.8542 62.4804 83.2372 62.8385 83.5281C63.1969 83.8191 63.6275 84.0074 64.0845 84.0725C64.5415 84.1376 65.0076 84.0772 65.433 83.898L67.6312 82.9765C84.7711 75.7608 103.229 72.2033 121.822 72.5313C123.395 72.5589 124.922 73.0712 126.192 73.9988C127.463 74.9262 128.416 76.2232 128.922 77.713C134.185 93.213 134.152 110.022 128.827 125.501C128.319 126.976 128.156 128.548 128.351 130.096C128.546 131.645 129.095 133.127 129.953 134.43C136.033 143.635 144.538 150.98 154.53 155.655C155.753 156.225 157.077 156.547 158.425 156.602C159.773 156.657 161.118 156.443 162.384 155.974C163.649 155.504 164.808 154.789 165.794 153.868C166.78 152.947 167.574 151.84 168.129 150.61C179.791 124.715 181.864 95.5168 173.976 68.2345C166.088 40.9523 148.754 17.365 125.072 1.68937C123.404 0.587488 121.449 0 119.45 0C117.451 0 115.496 0.587488 113.828 1.68937Z" fill="white"/>
<path d="M238.91 198.815C237.935 182.94 233.81 167.42 226.769 153.159C219.73 138.898 209.918 126.184 197.908 115.759L196.105 114.196C195.758 113.892 195.334 113.689 194.88 113.608C194.425 113.527 193.957 113.571 193.526 113.736C193.095 113.901 192.718 114.181 192.433 114.544C192.149 114.908 191.969 115.342 191.913 115.8C191.811 116.592 191.716 117.377 191.613 118.162C189.292 136.612 183.144 154.374 173.563 170.312C172.754 171.661 171.548 172.728 170.109 173.365C168.671 174.003 167.071 174.181 165.528 173.876C149.469 170.687 134.925 162.25 124.184 149.893C123.161 148.717 121.88 147.791 120.442 147.188C119.004 146.584 117.447 146.319 115.89 146.412C104.882 147.072 94.2721 150.762 85.2307 157.075C84.1237 157.848 83.1813 158.833 82.4584 159.973C81.7356 161.113 81.2465 162.385 81.0197 163.716C80.793 165.047 80.833 166.409 81.1375 167.725C81.4421 169.04 82.0049 170.282 82.7934 171.377C99.3854 194.426 123.635 210.82 151.205 217.63C178.775 224.439 207.87 221.221 233.283 208.548C235.075 207.658 236.563 206.262 237.563 204.529C238.566 202.798 239.032 200.811 238.91 198.815Z" fill="white"/>
</svg>
