<svg width="924" height="252" viewBox="0 0 924 252" fill="none" xmlns="http://www.w3.org/2000/svg"> <g clip-path="url(#clip0_94_20584)"> <path d="M313.72 181.1V59.88H334.58L385.38 139.03L393.04 153.29L392.51 59.88H412.48V181.1H391.62L341 102.31L333.16 87.51L333.69 181.1H313.73H313.72ZM431.76 74.32V52.75H450.83V74.32H431.76ZM431.76 181.1V86.09H450.83V181.1H431.76ZM528.44 141.7V86.08H547.34V181.09H528.44V168.26C522.2 178.42 512.22 183.41 500.1 183.41C480.67 183.41 468.55 172 468.55 149.54V86.08H487.62V145.62C487.62 159.35 493.32 167.55 505.98 167.55C519.88 167.55 528.44 154.89 528.44 141.7ZM565.21 181.1V86.09H584.28V100.17C590.52 88.76 600.32 83.59 611.38 83.59C615.12 83.59 618.69 84.48 620.47 86.09V102.85C617.62 101.96 614.23 101.6 610.31 101.6C592.13 101.6 584.28 112.65 584.28 129.23V181.1H565.21ZM644.71 117.1H625.64C628.67 96.07 643.11 83.59 666.82 83.59C692.67 83.59 705.5 98.74 705.5 120.85V157.93C705.5 169.34 706.57 175.93 708.71 181.1H688.75C687.32 177.53 686.79 172.54 686.61 167.2C678.59 178.43 666.29 183.42 654.88 183.42C635.63 183.42 622.44 174.33 622.44 156.15C622.44 143.14 629.57 133.51 643.83 128.7C656.49 124.42 669.32 123.35 686.43 123.17V121.03C686.43 107.13 680.01 99.64 665.4 99.64C653.1 99.64 646.5 106.41 644.72 117.11L644.71 117.1ZM641.68 155.43C641.68 163.45 648.28 168.44 658.44 168.44C674.31 168.44 686.43 155.78 686.43 140.45V136.17C649.89 136.53 641.69 144.55 641.69 155.42L641.68 155.43ZM724.06 181.1V52.75H743.13V181.1H724.06ZM872.25 181.1L861.91 153.83H806.65L796.31 181.1H776.35L823.05 59.88H846.4L893.1 181.1H872.24H872.25ZM830.72 90.9L812.72 138.14H855.86L837.86 90.9L834.29 79.14L830.72 90.9ZM903.89 181.1V59.88H923.86V181.1H903.89Z" fill="white"/> <path fill-rule="evenodd" clip-rule="evenodd" d="M224.23 93.4404L219.17 92.2904L219.09 92.2704C218.53 92.1504 218.04 92.0304 217.65 91.9204C217.17 91.7704 216.71 91.6004 216.29 91.3904C215.09 90.8304 214.09 89.9504 213.38 88.8404C211.8 86.4604 211.76 83.3904 213.24 80.9504C213.36 80.7504 213.48 80.5704 213.62 80.3904C213.68 80.3104 213.73 80.2504 213.79 80.1804C214.44 79.3804 215.31 78.7004 216.26 78.2304C216.59 78.0804 217.06 77.8504 217.68 77.6804C218.04 77.5704 218.39 77.5004 218.7 77.4204L219.06 77.3304C219.06 77.3304 219.15 77.3104 219.18 77.3004L224.24 76.1604C225.29 75.9204 226.27 75.5504 227.19 75.0704C225.54 65.8704 220.52 57.5704 213.1 51.8304C205.72 54.5304 200.05 60.8604 198.33 68.6304L196.5 76.7804L196.45 76.9904C196.27 77.7804 196.1 78.4604 195.92 79.0804C195.74 79.7004 195.54 80.1904 195.39 80.5504C195.33 80.6904 195.27 80.8204 195.19 80.9604C194.48 82.3204 193.51 83.4104 192.31 84.1904C190.92 85.1304 189.28 85.6104 187.55 85.6104C185.82 85.6104 184.17 85.1304 182.78 84.1904C181.58 83.4204 180.61 82.3304 179.9 80.9604C179.88 80.9304 179.87 80.9104 179.85 80.8804C179.59 80.3504 179.38 79.7904 179.18 79.1404C178.98 78.4904 178.82 77.7804 178.6 76.8404L176.77 68.6304C174.8 59.8704 167.84 52.9304 159.06 50.9504L150.85 49.0904L150.74 49.0604C149.97 48.8904 149.26 48.7304 148.6 48.5404C147.96 48.3404 147.43 48.1504 146.9 47.8904C145.49 47.2204 144.34 46.2204 143.51 44.9204C141.65 42.1004 141.6 38.5004 143.36 35.6304C143.5 35.4004 143.63 35.2104 143.78 35.0104C143.84 34.9204 143.9 34.8304 143.98 34.7504C144.74 33.8104 145.74 33.0204 146.87 32.4804C147.31 32.2704 147.89 32.0004 148.64 31.8004C149.14 31.6504 149.62 31.5304 150.11 31.4204C150.31 31.3704 150.53 31.3104 150.76 31.2704C150.79 31.2504 150.84 31.2404 150.88 31.2404L159.06 29.3904C162.29 28.6604 165.29 27.2504 167.86 25.3104L132.81 5.08043C121.1 -1.68957 106.66 -1.68957 94.93 5.08043L18.94 48.9604C7.23 55.7404 0 68.2404 0 81.7804V169.55C0 183.1 7.23 195.6 18.94 202.37L94.96 246.25C106.69 253.02 121.13 253.02 132.84 246.25L208.86 202.37C220.57 195.6 227.8 183.1 227.8 169.55V94.8604C226.71 94.2104 225.5 93.7204 224.22 93.4404H224.23ZM161.21 181.22L139.56 191.42H138.42V91.6704C138.42 87.8804 136.01 85.0504 131.24 83.1704C126.53 81.2604 120.75 80.3404 113.89 80.3404C107.03 80.3404 101.27 81.2804 96.48 83.1704C91.75 85.0504 89.4 87.8804 89.4 91.6704V181.22L67.75 191.42H66.61V87.7004C66.61 77.5804 73.72 69.7904 87.93 64.3304C95.6 61.4104 104.26 59.9404 113.92 59.9404C123.58 59.9404 132.22 61.4104 139.91 64.3304C154.11 69.7904 161.21 77.5704 161.21 87.7004V181.22Z" fill="white"/> <path d="M227.16 42.0107C226.86 42.4807 226.45 42.8407 225.89 43.1007C225.63 43.2407 225.36 43.3407 225 43.4507C224.48 43.6007 223.82 43.7507 223.08 43.9207L214.88 45.7807C212.4 46.3407 210.05 47.2207 207.85 48.3707C200.52 52.2307 195.03 59.1707 193.17 67.4607L191.35 75.5807C191.15 76.4107 191 77.0807 190.85 77.6007C190.74 77.9607 190.62 78.2507 190.52 78.5107C190.23 79.0607 189.87 79.4807 189.43 79.7507C188.87 80.1407 188.23 80.3107 187.58 80.3107C186.93 80.3107 186.28 80.1407 185.72 79.7507C185.28 79.4807 184.92 79.0507 184.63 78.5107C184.51 78.2507 184.4 77.9607 184.3 77.6007C184.15 77.1007 184 76.4607 183.83 75.6907L181.98 67.4607C179.56 56.7007 171.04 48.2007 160.27 45.7807L152.07 43.9207C151.33 43.7507 150.66 43.6007 150.15 43.4507C149.79 43.3407 149.51 43.2407 149.26 43.1007C148.7 42.8407 148.29 42.4807 147.99 42.0107C147.25 40.9007 147.25 39.4507 147.99 38.3107C147.99 38.2807 148.02 38.2807 148.02 38.2607L148.13 38.1407C148.13 38.1407 148.15 38.1107 148.15 38.0907C148.44 37.7407 148.82 37.4407 149.27 37.2307C149.53 37.1107 149.8 36.9707 150.16 36.9007C150.68 36.7207 151.34 36.6007 152.11 36.4007L160.28 34.5707C165.01 33.5107 169.33 31.2707 172.86 28.1607C177.38 24.2207 180.63 18.9007 182 12.8707L183.85 4.63074C184.02 3.89074 184.17 3.24074 184.32 2.74074C184.43 2.39074 184.53 2.09074 184.65 1.83074C184.94 1.30074 185.3 0.880742 185.74 0.570742L185.92 0.460742C185.92 0.460742 185.94 0.430742 185.95 0.430742C186.46 0.160742 187.03 0.0107422 187.59 0.0107422C188.26 0.0107422 188.89 0.210742 189.45 0.570742C189.89 0.870742 190.25 1.30074 190.54 1.83074C190.65 2.09074 190.77 2.39074 190.87 2.74074C191.02 3.27074 191.17 3.94074 191.35 4.73074L193.18 12.8807C195.6 23.6407 204.12 32.1507 214.89 34.5807L223 36.4107C223.83 36.6107 224.5 36.7307 225.02 36.9107C225.38 37.0207 225.66 37.1207 225.91 37.2407C226.36 37.4507 226.73 37.7607 227.03 38.1007C227.03 38.1207 227.05 38.1207 227.05 38.1507L227.16 38.2707C227.16 38.2707 227.19 38.3307 227.21 38.3607L227.3 38.4807C227.94 39.6307 227.88 40.9707 227.19 42.0107H227.16Z" fill="white"/> <path d="M266.77 85.9405C266.59 86.2405 266.33 86.4705 265.98 86.6205C265.83 86.7005 265.65 86.7705 265.43 86.8305C265.11 86.9205 264.7 87.0105 264.23 87.1205L259.17 88.2705C252.5 89.7705 247.24 95.0305 245.74 101.68L244.62 106.7C244.5 107.22 244.41 107.62 244.32 107.94C244.24 108.17 244.17 108.35 244.11 108.5C243.93 108.83 243.72 109.11 243.43 109.27C243.08 109.51 242.69 109.62 242.29 109.62C241.89 109.62 241.49 109.51 241.14 109.27C240.87 109.1 240.64 108.83 240.47 108.5C240.38 108.35 240.32 108.17 240.26 107.94C240.17 107.64 240.06 107.24 239.96 106.76L238.82 101.68C237.52 95.8505 233.3 91.0905 227.8 89.0005C227.03 88.7005 226.22 88.4505 225.41 88.2705L220.33 87.1205C219.88 87.0105 219.47 86.9205 219.15 86.8305C218.92 86.7705 218.76 86.6905 218.59 86.6205C218.24 86.4705 218 86.2405 217.82 85.9405C217.35 85.2605 217.35 84.3605 217.82 83.6505V83.6305L217.9 83.5405C217.9 83.5405 217.92 83.5405 217.92 83.5205C218.09 83.3105 218.33 83.1105 218.6 82.9905C218.77 82.9005 218.93 82.8205 219.16 82.7805C219.48 82.6705 219.89 82.6005 220.36 82.4805L225.42 81.3405C226.24 81.1605 227.03 80.9205 227.8 80.6305C233.32 78.5205 237.53 73.7505 238.83 67.9305L239.97 62.8405C240.08 62.3705 240.18 61.9805 240.27 61.6605C240.33 61.4505 240.39 61.2705 240.48 61.1005C240.65 60.7705 240.87 60.5105 241.15 60.3305L241.26 60.2505H241.29C241.61 60.0705 241.96 59.9805 242.29 59.9805C242.7 59.9805 243.09 60.1005 243.44 60.3305C243.73 60.5105 243.94 60.7705 244.12 61.1005C244.18 61.2705 244.26 61.4505 244.33 61.6605C244.42 61.9905 244.51 62.4005 244.62 62.8905L245.76 67.9405C247.26 74.5805 252.52 79.8505 259.19 81.3505L264.19 82.4905C264.72 82.6105 265.13 82.6905 265.45 82.7905C265.66 82.8505 265.84 82.9105 266 83.0005C266.29 83.1205 266.5 83.3205 266.7 83.5305C266.7 83.5505 266.72 83.5505 266.72 83.5505L266.78 83.6405C266.78 83.6405 266.8 83.6705 266.81 83.6905L266.86 83.7705C267.25 84.5005 267.22 85.3205 266.8 85.9505L266.77 85.9405Z" fill="white"/> </g> <defs> <clipPath id="clip0_94_20584"> <rect width="923.86" height="251.33" fill="white"/> </clipPath> </defs> </svg>