<svg width="320" height="72" viewBox="0 0 320 72" fill="none" xmlns="http://www.w3.org/2000/svg">
<g filter="url(#filter0_i_1445_1205)">
<path d="M84.0552 0H2.20969C0.378017 0 -0.655508 2.10344 0.463741 3.55337L13.3954 20.3058C13.7534 20.7695 14.3061 21.0411 14.8919 21.0411H33.1136C34.1577 21.0411 35.0041 21.8875 35.0041 22.9316V48.0721C35.0041 48.4962 35.1467 48.9079 35.4089 49.2412L51.966 70.2825C52.4439 70.8898 53.1741 71.2444 53.947 71.2444H54.5099C55.5594 71.2444 56.4081 70.3895 56.4003 69.34L56.0592 22.9455C56.0515 21.896 56.9001 21.0411 57.9497 21.0411H84.0552C85.0993 21.0411 85.9457 20.1947 85.9457 19.1506V1.89053C85.9457 0.846421 85.0993 0 84.0552 0Z" fill="white"/>
</g>
<path d="M112.581 19.7943V11.7498H148.129V19.7943H134.79V59.123H125.92V19.7943H112.581ZM181.973 11.7498H190.843V59.123H181.973V39.5274H162.997V59.123H154.265V11.7498H162.997V31.6204H181.973V11.7498ZM200.957 59.123V11.7498H230.248V19.588H209.689V31.8954H227.704V39.6649H209.689V51.2848H230.935V59.123H200.957ZM257.15 19.588H247.386V34.4394H256.875C261.55 34.4394 263.544 30.5891 263.544 27.0825C263.544 23.6447 261.55 19.588 257.15 19.588ZM260.656 41.9339L272.757 59.123H262.169L251.03 42.2777H247.386V59.123H238.585V11.7498H257.562C268.013 11.7498 272.689 19.3818 272.689 27.0825C272.689 33.8206 269.113 40.6275 260.656 41.9339ZM310.014 59.123L305.682 47.6407H288.012L283.68 59.123H274.329L292.068 11.7498H301.557L319.296 59.123H310.014ZM296.812 21.857L290.968 39.94H302.794L296.812 21.857Z" fill="white"/>
<defs>
<filter id="filter0_i_1445_1205" x="0" y="0" width="85.9453" height="72.9112" filterUnits="userSpaceOnUse" color-interpolation-filters="sRGB">
<feFlood flood-opacity="0" result="BackgroundImageFix"/>
<feBlend mode="normal" in="SourceGraphic" in2="BackgroundImageFix" result="shape"/>
<feColorMatrix in="SourceAlpha" type="matrix" values="0 0 0 0 0 0 0 0 0 0 0 0 0 0 0 0 0 0 127 0" result="hardAlpha"/>
<feOffset dy="1.66708"/>
<feGaussianBlur stdDeviation="1.25031"/>
<feComposite in2="hardAlpha" operator="arithmetic" k2="-1" k3="1"/>
<feColorMatrix type="matrix" values="0 0 0 0 0 0 0 0 0 0 0 0 0 0 0 0 0 0 0.25 0"/>
<feBlend mode="normal" in2="shape" result="effect1_innerShadow_1445_1205"/>
</filter>
</defs>
</svg>
