<svg width="999" height="268" viewBox="0 0 999 268" fill="none" xmlns="http://www.w3.org/2000/svg">
<path d="M831.666 148.455C831.666 145.857 831.336 143.605 831.336 141.006C830.76 133.904 828.865 127.061 825.487 121.257C817.824 107.658 802.664 106.359 793.107 111.556C787.587 114.501 783.22 119.611 781.407 125.848C776.464 138.754 776.464 152.353 779.595 165.693C780.83 171.496 783.632 177.04 787.587 181.544C795.249 189.599 807.031 190.292 815.27 186.048C821.45 182.843 825.157 177.646 827.876 171.15C830.348 164.047 831.583 156.251 831.583 148.455H831.666ZM734.362 266.95V80.8063H769.79V103.154C771.026 103.847 771.355 103.154 771.932 102.201C776.217 93.7991 781.819 86.6964 790.388 82.4521C794.672 80.4598 799.286 79.2472 803.9 78.9007C810.986 78.2944 818.401 79.2472 825.157 81.8457C836.28 86.0901 845.508 94.4921 851.028 105.493C855.971 114.847 858.69 125.242 859.679 135.636C860.915 149.928 860.585 164.48 856.301 178.426C853.829 187.52 849.215 195.923 843.036 202.679C834.714 212.034 823.015 217.924 810.656 218.184C804.477 218.876 798.627 217.837 792.777 215.931C783.879 212.727 776.464 205.884 772.179 196.875L771.273 194.883C771.273 194.883 770.696 194.277 770.037 193.93V266.777L734.279 267.123L734.362 266.95Z" fill="#201F1E"/>
<path d="M998.605 216.106H962.6V134.511C962.6 129.661 961.364 124.81 959.222 120.566C956.42 115.368 951.559 111.817 946.286 110.864C940.107 109.219 933.351 109.911 927.83 113.116C920.745 117.014 917.037 123.511 915.801 131.22C915.472 133.472 915.225 136.07 915.225 138.669V216.366H879.467V35.4194H914.236V103.415C914.236 103.415 914.566 104.021 914.813 104.368C915.142 104.021 915.719 104.021 915.719 103.762C916.296 102.462 916.955 100.817 917.532 99.5172C923.711 87.8237 932.939 81.4139 945.545 79.4217C953.537 78.1224 961.529 78.4689 969.274 81.0675C979.161 84.0125 987.482 91.1152 992.343 100.47C996.051 107.226 998.193 115.022 998.522 122.818C998.522 124.117 998.852 125.07 998.852 126.369L998.522 216.019L998.605 216.106Z" fill="#201F1E"/>
<path d="M462.407 144.905C462.407 144.905 462.077 144.299 462.077 143.953L453.756 117.361C449.718 104.455 445.763 91.4617 441.726 78.209C441.397 77.6027 441.15 76.9098 440.491 76.9098C439.584 76.5633 439.584 77.5161 439.255 78.5555C438.678 80.8076 437.689 83.0597 437.112 85.3118C431.592 102.809 426.319 120.306 420.799 137.803C420.222 140.401 419.233 142.653 418.657 145.252L462.407 144.905ZM471.305 175.049H410.665C409.758 174.702 408.852 175.395 408.852 176.348C404.815 188.994 400.86 201.9 397.153 214.547C396.823 215.846 395.917 216.452 395.01 216.193H357.77C358.676 213.248 359.582 210.649 360.241 208.05L374.742 164.308C380.921 145.165 387.348 126.109 393.527 106.966C398.8 91.1152 403.991 74.9175 409.264 59.0663C411.736 51.6171 414.208 44.1679 416.679 36.7187C416.679 36.1124 417.586 35.4194 418.245 35.4194H462.901C463.807 35.4194 464.466 36.1124 464.713 36.7187C467.762 45.8137 470.563 55.1685 473.612 64.2634L493.303 124.204L507.145 165.954C512.418 182.151 517.938 198.349 523.129 214.547C523.129 214.893 523.459 215.5 523.459 216.193H486.218C485.311 216.539 484.075 215.586 484.075 214.547C480.038 201.554 476.084 188.648 472.046 175.655C471.717 175.309 471.47 175.309 471.47 175.049H471.305Z" fill="#201F1E"/>
<path d="M681.964 134.512C682.293 126.11 679.163 118.314 673.066 112.857C661.366 102.81 643.817 104.455 634.259 117.102C630.222 121.952 628.08 128.102 628.08 134.599H681.964V134.512ZM714.344 178.861C713.437 184.664 710.966 190.554 707.588 195.405C700.172 206.059 690.038 212.209 678.339 215.76C670.347 218.012 662.355 218.965 654.033 218.705C644.476 218.705 634.919 216.453 626.02 212.209C615.557 207.012 606.905 198.956 601.385 188.216C596.112 178.514 593.393 167.86 592.734 156.773C591.828 145.772 592.734 135.118 595.535 124.378C600.479 106.881 610.284 93.2816 626.02 84.8796C633.106 81.3282 640.521 79.0761 648.513 78.7296C658.07 77.7768 667.957 79.0761 677.185 81.9345C685.177 84.8796 692.922 89.3837 698.772 95.8801C706.187 103.936 711.13 113.724 713.52 124.378C715.085 130.874 715.991 137.63 715.991 144.127V157.379H628.245C628.574 160.584 628.821 163.529 629.151 166.474C630.057 172.278 632.529 177.475 636.566 181.719C641.51 186.916 647.936 189.861 655.022 190.121C659.636 190.468 664.579 189.775 668.864 188.216C673.478 186.57 677.185 183.365 680.234 179.121C680.563 178.774 681.14 178.514 681.469 178.168H714.097C714.097 178.774 714.426 178.774 714.426 178.774L714.344 178.861Z" fill="#201F1E"/>
<path d="M574.196 35.4194H538.438V216.106H574.196V35.4194Z" fill="#201F1E"/>
<path d="M0.0215152 226.386C1.99951 194.118 15.3774 163.606 37.7647 140.303C60.1517 116.999 90.089 102.423 122.226 99.1786C123.753 99.0244 125.296 99.1759 126.765 99.6239C128.233 100.072 129.598 100.808 130.78 101.788C131.962 102.769 132.938 103.975 133.65 105.336C134.362 106.697 134.797 108.186 134.929 109.717C136.009 122.226 133.609 134.791 127.995 146.019C127.205 147.611 126.06 149 124.647 150.078C123.235 151.156 121.593 151.895 119.85 152.236C101.575 155.789 84.9966 165.316 72.7167 179.321C71.5378 180.667 70.8029 182.346 70.6124 184.126C70.4222 185.906 70.7853 187.702 71.6528 189.268C81.9025 207.789 95.9041 223.962 112.761 236.754L114.919 238.394C115.335 238.712 115.658 239.138 115.853 239.624C116.049 240.112 116.11 240.642 116.029 241.16C115.946 241.677 115.724 242.165 115.386 242.565C115.048 242.965 114.608 243.269 114.112 243.437L111.549 244.322C94.4505 250.232 76.3466 252.669 58.2958 251.493C40.2449 250.317 22.6092 245.552 6.41964 237.477C4.38356 236.461 2.69118 234.866 1.55351 232.896C0.415838 230.922 -0.11703 228.658 0.0215152 226.386Z" fill="#201F1E"/>
<path d="M129.47 1.9232C114.386 11.9173 101.444 24.8213 91.4002 39.8802C81.3568 54.9391 74.4138 71.8511 70.9771 89.627C70.806 90.5129 70.6352 91.399 70.4567 92.2849C70.3563 92.8006 70.3981 93.3342 70.5772 93.8281C70.7562 94.322 71.0663 94.758 71.4737 95.0892C71.8814 95.4204 72.3711 95.6348 72.8909 95.7089C73.4107 95.783 73.9409 95.7142 74.4247 95.5102L76.9249 94.4612C96.4201 86.2468 117.414 82.1969 138.563 82.5703C140.352 82.6017 142.088 83.1849 143.533 84.2409C144.979 85.2967 146.063 86.7732 146.638 88.4692C152.625 106.114 152.587 125.25 146.53 142.871C145.952 144.551 145.766 146.341 145.989 148.103C146.211 149.866 146.834 151.553 147.811 153.037C154.726 163.515 164.4 171.876 175.765 177.199C177.155 177.848 178.661 178.215 180.195 178.277C181.728 178.339 183.259 178.096 184.698 177.562C186.136 177.028 187.455 176.213 188.577 175.165C189.699 174.116 190.601 172.856 191.232 171.455C204.498 141.977 206.855 108.737 197.883 77.6788C188.911 46.6205 169.195 19.7685 142.259 1.9232C140.362 0.668801 138.138 0 135.865 0C133.591 0 131.367 0.668801 129.47 1.9232Z" fill="#201F1E"/>
<path d="M271.74 226.333C270.632 208.261 265.94 190.591 257.931 174.357C249.925 158.123 238.764 143.649 225.104 131.781L223.054 130.001C222.658 129.655 222.176 129.424 221.66 129.332C221.143 129.24 220.611 129.29 220.121 129.478C219.63 129.666 219.201 129.984 218.877 130.398C218.554 130.812 218.35 131.306 218.286 131.827C218.17 132.729 218.061 133.623 217.944 134.516C215.304 155.52 208.311 175.741 197.414 193.885C196.493 195.42 195.121 196.634 193.486 197.36C191.85 198.086 190.03 198.289 188.275 197.941C170.009 194.311 153.467 184.707 141.25 170.639C140.085 169.3 138.629 168.247 136.993 167.56C135.358 166.872 133.586 166.57 131.816 166.676C119.296 167.427 107.227 171.629 96.9435 178.815C95.6844 179.695 94.6125 180.816 93.7903 182.114C92.9681 183.412 92.4118 184.861 92.1539 186.375C91.8959 187.89 91.9415 189.442 92.2879 190.939C92.6342 192.436 93.2745 193.85 94.1713 195.097C113.043 221.335 140.625 239.999 171.984 247.751C203.343 255.503 236.435 251.839 265.341 237.413C267.379 236.399 269.071 234.81 270.208 232.837C271.349 230.866 271.879 228.605 271.74 226.333Z" fill="#201F1E"/>
</svg>
