<svg width="836" height="126" viewBox="0 0 836 126" fill="none" xmlns="http://www.w3.org/2000/svg">
<g clip-path="url(#clip0_2443_25025)">
<mask id="mask0_2443_25025" style="mask-type:luminance" maskUnits="userSpaceOnUse" x="0" y="0" width="836" height="126">
<path d="M836 0H0V126H836V0Z" fill="white"/>
</mask>
<g mask="url(#mask0_2443_25025)">
<path d="M233.062 79.6584C233.062 51.8487 251.515 32.9531 278.555 32.9531C301.392 32.9531 315.824 45.4301 319.665 65.4H303.95C301.211 53.2767 292.074 45.9673 278.366 45.9673C260.464 45.9673 248.4 59.8721 248.4 79.6584C248.4 99.4447 260.456 112.996 278.366 112.996C291.705 112.996 300.841 105.51 303.761 93.9236H319.656C316.006 113.533 300.841 126.01 278.185 126.01C250.965 126.01 233.055 108.005 233.055 79.6584H233.062Z" fill="black"/>
<path d="M540.109 0.148438H555.091V124.931H540.109V0.148438Z" fill="black"/>
<path d="M663.702 79.6584C663.702 51.8487 682.155 32.9531 709.194 32.9531C732.031 32.9531 746.463 45.4301 750.304 65.4H734.589C731.85 53.2767 722.714 45.9673 709.006 45.9673C691.103 45.9673 679.04 59.8721 679.04 79.6584C679.04 99.4447 691.096 112.996 709.006 112.996C722.345 112.996 731.481 105.51 734.401 93.9236H750.297C746.645 113.533 731.481 126.01 708.826 126.01C681.605 126.01 663.695 108.005 663.695 79.6584H663.702Z" fill="black"/>
<path d="M602.599 125.652V112.183C589.051 108.463 580.431 96.0002 580.431 79.8175C580.431 60.3848 592.857 46.3033 611.311 46.3033C629.763 46.3033 642.189 60.3848 642.189 79.8175C642.189 96.0002 633.562 108.47 620.021 112.183V125.652C642.496 122.049 657.534 104.391 657.534 79.8175C657.534 52.1846 638.53 33.2891 611.311 33.2891C584.09 33.2891 565.086 52.1846 565.086 79.8175C565.086 104.391 580.124 122.042 602.599 125.652Z" fill="black"/>
<path d="M180.662 33.2969C153.442 33.2969 134.438 52.1925 134.438 79.8253C134.438 104.398 149.477 122.05 171.951 125.66V112.191C158.41 108.471 149.783 96.0079 149.783 79.8253C149.783 60.3925 162.208 46.3109 180.662 46.3109C199.116 46.3109 211.542 60.3925 211.542 79.8253C211.542 96.0079 202.913 108.478 189.374 112.191V125.66C211.848 122.05 226.887 104.398 226.887 79.8253C226.887 52.1925 207.883 33.2969 180.662 33.2969Z" fill="black"/>
<path d="M774.491 82.3194V82.3262V0.148438H759.508V124.931H774.491V101.045V101.038V82.3194Z" fill="black"/>
<path d="M804.153 64.3216L833.436 34.0234H814.982L787.031 62.8937V82.1497L817.91 124.932H836.001L803.066 79.8243C799.589 75.0647 800.048 68.5712 804.16 64.3148L804.153 64.3216Z" fill="black"/>
<path d="M66.2812 0.101562V14.4211C91.8501 16.2569 112.088 37.1244 112.088 62.5406C112.088 87.9568 91.8501 108.817 66.2812 110.66V124.98C99.934 123.117 126.722 95.8305 126.722 62.5406C126.722 29.2506 99.9269 1.9646 66.2812 0.101562Z" fill="black"/>
<path d="M411.291 0.148438V72.5214C411.291 94.6875 403.493 107.668 387.102 110.918V125.468C413.332 122.205 427.187 103.826 427.187 71.6307V0.148438H411.291Z" fill="black"/>
<path d="M369.71 110.965C353.396 107.79 345.521 94.7895 345.521 72.5214V0.148438H329.625V71.6307C329.625 103.969 343.305 122.375 369.71 125.516V110.965Z" fill="black"/>
<path d="M526.36 124.93H511.377V71.8744C511.377 57.6092 499.482 46.0094 484.867 46.0094C470.253 46.0094 458.358 57.6161 458.358 71.8744V124.93H443.375V71.8744C443.375 49.5519 461.988 31.3906 484.867 31.3906C507.747 31.3906 526.36 49.5519 526.36 71.8744V124.93Z" fill="black"/>
<path d="M77.1963 62.538L59.1412 44.9219L41.0859 62.538L59.1412 80.1543L77.1963 62.538Z" fill="black"/>
<path d="M14.6346 98.5658V71.0078H0V125.097H48.9424V110.818H27.1856C20.2516 110.818 14.6346 105.338 14.6346 98.5726V98.5658Z" fill="black"/>
<path d="M0 0V54.0894H14.6346V26.5313C14.6346 19.7659 20.2516 14.2856 27.1856 14.2856H48.9424V0H0Z" fill="black"/>
</g>
</g>
<defs>
<clipPath id="clip0_2443_25025">
<rect width="836" height="126" fill="white"/>
</clipPath>
</defs>
</svg>
