<svg width="924" height="252" viewBox="0 0 924 252" fill="none" xmlns="http://www.w3.org/2000/svg">
<g clip-path="url(#clip0_462_20580)">
<path d="M313.72 181.1V59.88H334.58L385.38 139.03L393.04 153.29L392.51 59.88H412.48V181.1H391.62L341 102.31L333.16 87.51L333.69 181.1H313.73H313.72ZM431.76 74.32V52.75H450.83V74.32H431.76ZM431.76 181.1V86.09H450.83V181.1H431.76ZM528.44 141.7V86.08H547.34V181.09H528.44V168.26C522.2 178.42 512.22 183.41 500.1 183.41C480.67 183.41 468.55 172 468.55 149.54V86.08H487.62V145.62C487.62 159.35 493.32 167.55 505.98 167.55C519.88 167.55 528.44 154.89 528.44 141.7ZM565.21 181.1V86.09H584.28V100.17C590.52 88.76 600.32 83.59 611.38 83.59C615.12 83.59 618.69 84.48 620.47 86.09V102.85C617.62 101.96 614.23 101.6 610.31 101.6C592.13 101.6 584.28 112.65 584.28 129.23V181.1H565.21ZM644.71 117.1H625.64C628.67 96.07 643.11 83.59 666.82 83.59C692.67 83.59 705.5 98.74 705.5 120.85V157.93C705.5 169.34 706.57 175.93 708.71 181.1H688.75C687.32 177.53 686.79 172.54 686.61 167.2C678.59 178.43 666.29 183.42 654.88 183.42C635.63 183.42 622.44 174.33 622.44 156.15C622.44 143.14 629.57 133.51 643.83 128.7C656.49 124.42 669.32 123.35 686.43 123.17V121.03C686.43 107.13 680.01 99.64 665.4 99.64C653.1 99.64 646.5 106.41 644.72 117.11L644.71 117.1ZM641.68 155.43C641.68 163.45 648.28 168.44 658.44 168.44C674.31 168.44 686.43 155.78 686.43 140.45V136.17C649.89 136.53 641.69 144.55 641.69 155.42L641.68 155.43ZM724.06 181.1V52.75H743.13V181.1H724.06ZM872.25 181.1L861.91 153.83H806.65L796.31 181.1H776.35L823.05 59.88H846.4L893.1 181.1H872.24H872.25ZM830.72 90.9L812.72 138.14H855.86L837.86 90.9L834.29 79.14L830.72 90.9ZM903.89 181.1V59.88H923.86V181.1H903.89Z" fill="black"/>
<path fill-rule="evenodd" clip-rule="evenodd" d="M224.23 93.4395L219.17 92.2895L219.09 92.2694C218.53 92.1494 218.04 92.0294 217.65 91.9194C217.17 91.7694 216.71 91.5995 216.29 91.3895C215.09 90.8295 214.09 89.9494 213.38 88.8394C211.8 86.4594 211.76 83.3894 213.24 80.9494C213.36 80.7494 213.48 80.5695 213.62 80.3895C213.68 80.3095 213.73 80.2495 213.79 80.1795C214.44 79.3795 215.31 78.6995 216.26 78.2295C216.59 78.0795 217.06 77.8495 217.68 77.6795C218.04 77.5695 218.39 77.4994 218.7 77.4194L219.06 77.3295C219.06 77.3295 219.15 77.3095 219.18 77.2995L224.24 76.1595C225.29 75.9195 226.27 75.5495 227.19 75.0695C225.54 65.8695 220.52 57.5695 213.1 51.8295C205.72 54.5295 200.05 60.8594 198.33 68.6294L196.5 76.7794L196.45 76.9894C196.27 77.7794 196.1 78.4595 195.92 79.0795C195.74 79.6995 195.54 80.1895 195.39 80.5495C195.33 80.6895 195.27 80.8194 195.19 80.9594C194.48 82.3194 193.51 83.4095 192.31 84.1895C190.92 85.1295 189.28 85.6095 187.55 85.6095C185.82 85.6095 184.17 85.1295 182.78 84.1895C181.58 83.4195 180.61 82.3294 179.9 80.9594C179.88 80.9294 179.87 80.9094 179.85 80.8794C179.59 80.3494 179.38 79.7895 179.18 79.1395C178.98 78.4895 178.82 77.7794 178.6 76.8394L176.77 68.6294C174.8 59.8694 167.84 52.9295 159.06 50.9495L150.85 49.0895L150.74 49.0595C149.97 48.8895 149.26 48.7295 148.6 48.5395C147.96 48.3395 147.43 48.1495 146.9 47.8895C145.49 47.2195 144.34 46.2195 143.51 44.9195C141.65 42.0995 141.6 38.4995 143.36 35.6295C143.5 35.3995 143.63 35.2095 143.78 35.0095C143.84 34.9195 143.9 34.8295 143.98 34.7495C144.74 33.8095 145.74 33.0195 146.87 32.4795C147.31 32.2695 147.89 31.9995 148.64 31.7995C149.14 31.6495 149.62 31.5295 150.11 31.4195C150.31 31.3695 150.53 31.3095 150.76 31.2695C150.79 31.2495 150.84 31.2395 150.88 31.2395L159.06 29.3895C162.29 28.6595 165.29 27.2495 167.86 25.3095L132.81 5.07945C121.1 -1.69055 106.66 -1.69055 94.93 5.07945L18.94 48.9595C7.23 55.7395 0 68.2394 0 81.7794V169.549C0 183.099 7.23 195.599 18.94 202.369L94.96 246.249C106.69 253.019 121.13 253.019 132.84 246.249L208.86 202.369C220.57 195.599 227.8 183.099 227.8 169.549V94.8595C226.71 94.2095 225.5 93.7195 224.22 93.4395H224.23ZM161.21 181.219L139.56 191.419H138.42V91.6694C138.42 87.8794 136.01 85.0494 131.24 83.1694C126.53 81.2594 120.75 80.3394 113.89 80.3394C107.03 80.3394 101.27 81.2794 96.48 83.1694C91.75 85.0494 89.4 87.8794 89.4 91.6694V181.219L67.75 191.419H66.61V87.6994C66.61 77.5794 73.72 69.7895 87.93 64.3295C95.6 61.4095 104.26 59.9395 113.92 59.9395C123.58 59.9395 132.22 61.4095 139.91 64.3295C154.11 69.7895 161.21 77.5694 161.21 87.6994V181.219Z" fill="black"/>
<path d="M227.16 42.0098C226.86 42.4798 226.45 42.8398 225.89 43.0998C225.63 43.2398 225.36 43.3398 225 43.4498C224.48 43.5998 223.82 43.7498 223.08 43.9198L214.88 45.7798C212.4 46.3398 210.05 47.2198 207.85 48.3698C200.52 52.2298 195.03 59.1698 193.17 67.4598L191.35 75.5798C191.15 76.4098 191 77.0798 190.85 77.5998C190.74 77.9598 190.62 78.2498 190.52 78.5098C190.23 79.0598 189.87 79.4798 189.43 79.7498C188.87 80.1398 188.23 80.3098 187.58 80.3098C186.93 80.3098 186.28 80.1398 185.72 79.7498C185.28 79.4798 184.92 79.0498 184.63 78.5098C184.51 78.2498 184.4 77.9598 184.3 77.5998C184.15 77.0998 184 76.4598 183.83 75.6898L181.98 67.4598C179.56 56.6998 171.04 48.1998 160.27 45.7798L152.07 43.9198C151.33 43.7498 150.66 43.5998 150.15 43.4498C149.79 43.3398 149.51 43.2398 149.26 43.0998C148.7 42.8398 148.29 42.4798 147.99 42.0098C147.25 40.8998 147.25 39.4498 147.99 38.3098C147.99 38.2798 148.02 38.2798 148.02 38.2598L148.13 38.1398C148.13 38.1398 148.15 38.1098 148.15 38.0898C148.44 37.7398 148.82 37.4398 149.27 37.2298C149.53 37.1098 149.8 36.9698 150.16 36.8998C150.68 36.7198 151.34 36.5998 152.11 36.3998L160.28 34.5698C165.01 33.5098 169.33 31.2698 172.86 28.1598C177.38 24.2198 180.63 18.8998 182 12.8698L183.85 4.62977C184.02 3.88977 184.17 3.23977 184.32 2.73977C184.43 2.38977 184.53 2.08977 184.65 1.82977C184.94 1.29977 185.3 0.879766 185.74 0.569766L185.92 0.459766C185.92 0.459766 185.94 0.429766 185.95 0.429766C186.46 0.159766 187.03 0.00976562 187.59 0.00976562C188.26 0.00976562 188.89 0.209766 189.45 0.569766C189.89 0.869766 190.25 1.29977 190.54 1.82977C190.65 2.08977 190.77 2.38977 190.87 2.73977C191.02 3.26977 191.17 3.93977 191.35 4.72977L193.18 12.8798C195.6 23.6398 204.12 32.1498 214.89 34.5798L223 36.4098C223.83 36.6098 224.5 36.7298 225.02 36.9098C225.38 37.0198 225.66 37.1198 225.91 37.2398C226.36 37.4498 226.73 37.7598 227.03 38.0998C227.03 38.1198 227.05 38.1198 227.05 38.1498L227.16 38.2698C227.16 38.2698 227.19 38.3298 227.21 38.3598L227.3 38.4798C227.94 39.6298 227.88 40.9698 227.19 42.0098H227.16Z" fill="black"/>
<path d="M266.77 85.9385C266.59 86.2385 266.33 86.4685 265.98 86.6185C265.83 86.6985 265.65 86.7685 265.43 86.8285C265.11 86.9185 264.7 87.0085 264.23 87.1185L259.17 88.2685C252.5 89.7685 247.24 95.0285 245.74 101.679L244.62 106.699C244.5 107.219 244.41 107.619 244.32 107.939C244.24 108.169 244.17 108.349 244.11 108.499C243.93 108.829 243.72 109.109 243.43 109.269C243.08 109.509 242.69 109.619 242.29 109.619C241.89 109.619 241.49 109.509 241.14 109.269C240.87 109.099 240.64 108.829 240.47 108.499C240.38 108.349 240.32 108.169 240.26 107.939C240.17 107.639 240.06 107.239 239.96 106.759L238.82 101.679C237.52 95.8485 233.3 91.0885 227.8 88.9985C227.03 88.6985 226.22 88.4485 225.41 88.2685L220.33 87.1185C219.88 87.0085 219.47 86.9185 219.15 86.8285C218.92 86.7685 218.76 86.6885 218.59 86.6185C218.24 86.4685 218 86.2385 217.82 85.9385C217.35 85.2585 217.35 84.3585 217.82 83.6485V83.6285L217.9 83.5385C217.9 83.5385 217.92 83.5385 217.92 83.5185C218.09 83.3085 218.33 83.1085 218.6 82.9885C218.77 82.8985 218.93 82.8185 219.16 82.7785C219.48 82.6685 219.89 82.5985 220.36 82.4785L225.42 81.3385C226.24 81.1585 227.03 80.9185 227.8 80.6285C233.32 78.5185 237.53 73.7485 238.83 67.9285L239.97 62.8385C240.08 62.3685 240.18 61.9785 240.27 61.6585C240.33 61.4485 240.39 61.2685 240.48 61.0985C240.65 60.7685 240.87 60.5085 241.15 60.3285L241.26 60.2485H241.29C241.61 60.0685 241.96 59.9785 242.29 59.9785C242.7 59.9785 243.09 60.0985 243.44 60.3285C243.73 60.5085 243.94 60.7685 244.12 61.0985C244.18 61.2685 244.26 61.4485 244.33 61.6585C244.42 61.9885 244.51 62.3985 244.62 62.8885L245.76 67.9385C247.26 74.5785 252.52 79.8485 259.19 81.3485L264.19 82.4885C264.72 82.6085 265.13 82.6885 265.45 82.7885C265.66 82.8485 265.84 82.9085 266 82.9985C266.29 83.1185 266.5 83.3185 266.7 83.5285C266.7 83.5485 266.72 83.5485 266.72 83.5485L266.78 83.6385C266.78 83.6385 266.8 83.6685 266.81 83.6885L266.86 83.7685C267.25 84.4985 267.22 85.3185 266.8 85.9485L266.77 85.9385Z" fill="black"/>
</g>
<defs>
<clipPath id="clip0_462_20580">
<rect width="923.86" height="251.33" fill="white"/>
</clipPath>
</defs>
</svg>
