<svg width="1559" height="327" viewBox="0 0 1559 327" fill="none" xmlns="http://www.w3.org/2000/svg">
<g clip-path="url(#clip0_626_36)">
<path d="M459.3 79V120.1H422.8C395.1 120.1 375.9 138.5 375.9 169V255.1H335.2V79H374.6V108H375.9C383.7 89.6 400.8 79 423.5 79H459.3Z" fill="#1E1E1E"/>
<path fill-rule="evenodd" clip-rule="evenodd" d="M643.701 181.2H504.201C507.401 203.9 526.601 221.9 554.301 222.6C574.201 223 591.601 214.1 598.601 199.9H640.901C629.501 238.2 595.201 260.2 553.601 260.2C495.801 260.2 462.101 217.3 462.101 167.3C462.101 115.3 499.401 74.2 553.601 74.2C612.101 74.1 649.001 120.5 643.701 181.2ZM505.001 147.8H601.501C596.201 125.9 577.701 111.7 552.901 111.7C528.301 111.7 509.901 126.2 505.001 147.8ZM833.901 255.2L810.401 198.2H704.401L681.301 255.2H634.501L734.501 17.8H781.401L881.801 255.2H833.901ZM720.001 159.5H794.501L756.901 68L720.001 159.5Z" fill="#1E1E1E"/>
<path d="M882.7 0H923.5V200.3C923.5 210.2 929.6 215.9 939.5 215.9H965.4V255.2H932.4C900.5 255.2 882.7 237.5 882.7 207V0Z" fill="#1E1E1E"/>
<path fill-rule="evenodd" clip-rule="evenodd" d="M1170.9 167.3C1170.9 222.6 1133.6 260.9 1083.9 260.2C1057 260.2 1035.6 247.4 1024 229.7H1022.2V326.1H981.8V79H1022.2V103.4H1024C1036.1 86.4 1057.3 74.4 1083.9 74.1C1134.7 73.7 1170.9 112.7 1170.9 167.3ZM1129.7 167C1129.7 137 1105.8 112.8 1076.1 112.8C1046.5 112.8 1022.5 137 1022.5 167C1022.5 196.9 1046.5 221.2 1076.1 221.2C1105.8 221.2 1129.7 196.9 1129.7 167Z" fill="#1E1E1E"/>
<path d="M1356.4 153.8V255.1H1315.6V160.2C1315.6 132.6 1298.9 114.2 1273.7 114.2C1246.8 114.2 1226.1 135 1226.1 165.5V255.2H1185.4V0H1226.1V101.7H1227.9C1240.3 84.7 1260.1 74.1 1284 74.1C1328 74.1 1356.4 104.2 1356.4 153.8Z" fill="#1E1E1E"/>
<path fill-rule="evenodd" clip-rule="evenodd" d="M1518.6 79H1559V255.1H1518.6V229.6H1516.8C1505.1 247.4 1484.6 260.1 1456.9 260.1C1407.2 260.8 1369.9 222.5 1369.9 167.3C1369.9 112.7 1406.1 73.7 1456.9 74.1C1484.2 74.4 1505.2 86.5 1516.8 103.4H1518.6V79ZM1518.2 167C1518.2 137.1 1494.3 112.8 1464.6 112.8C1435 112.8 1411 137.1 1411 167C1411 197 1435 221.2 1464.6 221.2C1494.3 221.2 1518.2 197 1518.2 167Z" fill="#1E1E1E"/>
<path d="M235.7 117.7C234.6 131.6 230.8 157.6 214.1 183.1C207.5 193.3 195.1 212 171.9 221.6C166.3 223.9 150.4 230.2 130.4 225.9C125.5 224.9 114.5 222.5 103.2 213.3C99.3 210.2 83.2 196.4 78.5 172.1C73.3 145 84.9 114.8 106.1 99.9C127.5 85 157.2 86.1 177.5 102.7C197.9 119.4 207.3 150.3 200.2 177C211.8 161.9 217.9 142 217 122.3C216.1 102.6 208.2 83.5 195.4 69.8C174.9 47.8 143.2 41.2 115.3 48.8C93.1 54.8 73.3 69.5 59.3 89.3C45 109.5 40 128.3 36.4 142.5C29.1 172.1 17.8 213.9 0 269.2H42.3C47 254.2 51.6 239.2 56.3 224.2C61.7 232 79.6 255.9 112.8 265.4C138.9 272.9 160.5 267.5 166 265.9C194.3 258.2 210.4 239.8 216.1 233C232.8 212.6 241.9 185.2 242.1 157.8C242.3 140.5 238.6 126.5 235.7 117.7ZM50.1 75.2C47.5667 65.5333 45 55.9 42.4 46.3H0.1C7.9 75 15.6 103.6 23.4 132.2C24.7 124.5 27.2 114.5 32.2 103.6C37.8 91.1 44.6 81.7 50.1 75.2Z" fill="#1E1E1E"/>
</g>
<defs>
<clipPath id="clip0_626_36">
<rect width="1559" height="327" fill="white"/>
</clipPath>
</defs>
</svg>
